<?xml version="1.0" encoding="UTF-8"?>
<svg id="_레이어_2" data-name="레이어 2" xmlns="http://www.w3.org/2000/svg" viewBox="0 0 650 130">
  <defs>
    <style>
      .cls-1 {
        fill: #fcfdfc;
      }

      .cls-1, .cls-2, .cls-3, .cls-4, .cls-5, .cls-6, .cls-7, .cls-8, .cls-9, .cls-10, .cls-11, .cls-12, .cls-13, .cls-14, .cls-15, .cls-16, .cls-17, .cls-18, .cls-19, .cls-20, .cls-21, .cls-22, .cls-23, .cls-24, .cls-25, .cls-26, .cls-27, .cls-28, .cls-29, .cls-30, .cls-31, .cls-32, .cls-33, .cls-34, .cls-35, .cls-36, .cls-37, .cls-38, .cls-39, .cls-40, .cls-41, .cls-42, .cls-43, .cls-44, .cls-45, .cls-46, .cls-47, .cls-48, .cls-49, .cls-50 {
        stroke-width: 0px;
      }

      .cls-2 {
        fill: #242d2b;
      }

      .cls-3 {
        fill: #272124;
      }

      .cls-4 {
        fill: #131f2a;
      }

      .cls-5 {
        fill: #f27631;
      }

      .cls-6 {
        fill: #f8f2d9;
      }

      .cls-7 {
        fill: #ef772e;
      }

      .cls-8 {
        fill: #1f282a;
      }

      .cls-9 {
        fill: #1d2429;
      }

      .cls-10 {
        fill: #ea752b;
      }

      .cls-11 {
        fill: #f5ad30;
      }

      .cls-12 {
        fill: #f7a831;
      }

      .cls-13 {
        fill: #f85f8e;
      }

      .cls-14 {
        fill: #f3ecdd;
      }

      .cls-15 {
        fill: #f6a735;
      }

      .cls-16 {
        fill: #f4ebe0;
      }

      .cls-17 {
        fill: #edc278;
      }

      .cls-18 {
        fill: #fafaf8;
      }

      .cls-19 {
        fill: #f2eec7;
      }

      .cls-20 {
        fill: #f8608d;
      }

      .cls-21 {
        fill: #f9608d;
      }

      .cls-22 {
        fill: #f8faf8;
      }

      .cls-23 {
        fill: #f9a32c;
      }

      .cls-51 {
        fill: #f07800;
        font-family: CookieRunOTF-Bold-KSCpc-EUC-H, CookieRunOTF;
        font-size: 83.56px;
        font-weight: 700;
        letter-spacing: .03em;
      }

      .cls-24 {
        fill: #faf4f0;
      }

      .cls-25 {
        fill: #eb7030;
      }

      .cls-26 {
        fill: #a2a6ab;
      }

      .cls-27 {
        fill: #232224;
      }

      .cls-28 {
        fill: #f2f4ea;
      }

      .cls-29 {
        fill: #f4e0b3;
      }

      .cls-30 {
        fill: #e9ca58;
      }

      .cls-31 {
        fill: #ac4850;
      }

      .cls-32 {
        fill: #f07830;
      }

      .cls-33 {
        fill: #e3c460;
      }

      .cls-34 {
        fill: #fcb233;
      }

      .cls-35 {
        fill: #f95f8c;
      }

      .cls-36 {
        fill: #ec616c;
      }

      .cls-37 {
        fill: #dddad5;
      }

      .cls-38 {
        fill: #292c2a;
      }

      .cls-39 {
        fill: #262124;
      }

      .cls-40 {
        fill: #19212a;
      }

      .cls-41 {
        fill: #f59b2c;
      }

      .cls-42 {
        fill: #faa138;
      }

      .cls-43 {
        fill: #f8f0d4;
      }

      .cls-44 {
        fill: #fbb332;
      }

      .cls-45 {
        fill: #f3ead6;
      }

      .cls-46 {
        fill: #f7f1cc;
      }

      .cls-47 {
        fill: #1f2729;
      }

      .cls-48 {
        fill: #eeddbc;
      }

      .cls-49 {
        fill: #252921;
      }

      .cls-50 {
        fill: #252325;
      }
    </style>
  </defs>
  <g id="_레이어_1-2" data-name="레이어 1">
    <g>
      <g>
        <path class="cls-26" d="M34.62,25.84c.16-.02.33-.03.49-.04,1.34,2.06,1.34,4.12,0,6.18h-.25s-.24-.04-.24-.04v-6.11Z"/>
        <path class="cls-4" d="M0,51.23c0-2.06,0-4.12,0-6.18.37-5.16,1.79-9.99,4.63-14.34.88-1.35,1.46-2.7,1.43-4.37-.06-3.08,1.64-5.41,3.65-7.53,4.06-4.26,9.11-7.17,14.01-10.31,3.76-2.41,6.95-5.65,11.59-6.65C54.41-2.24,72.19.06,87.84,12.61c1.6,1.28,2.55,1.4,4.18.14C106.88,1.24,123.54-.61,141.3,3.71c2.9.71,5.42,2.14,7.83,3.96,4.71,3.56,9.94,6.38,14.45,10.23,3.95,3.37,7.53,6.91,7.06,12.75-.08.95.55,1.74,1.01,2.54,5.72,9.78,5.23,19.88,1.51,30.13-.5,1.38-1.35,2.64-1.8,4.04-2.75,8.45-8.87,13.2-17.11,15.36-2.74.72-3.77,2.03-4.21,4.76-.95,5.88-2.97,11.42-6.58,16.26-.45.6-.93,1.16-.98,1.94-.55,7.7-5.36,12.5-12.08,14.15-8.09,1.98-15.36,6.11-23.47,7.82-19.4,4.11-38.26,3.21-56.26-5.9-1.72-.87-3.54-.96-5.36-1.15-6.66-.72-14.32-6.93-15.48-12.94-.44-2.26-1.34-4.08-2.55-5.96-3.33-5.14-4.76-10.98-5.51-16.97-.17-1.39-.53-2.03-1.96-2.47-7.72-2.38-13.41-6.82-14.92-15.36-.2-1.11-1.11-2.1-1.68-3.15-2.12-3.9-2.95-8.13-3.19-12.51Z"/>
        <path class="cls-44" d="M27.75,65.08c.5-2.06,1.36-3.95,2.72-5.59.53-.64,1.11-1.24.8-2.18-.16-1.35,1.1-1.78,1.69-2.63,1.12-1.68,2.62-3.02,3.99-4.48,6.53-6.64,13.82-12.28,21.91-16.89,4.72-2.29,9.46-4.51,14.47-6.1,15.52-4.96,29.45-.57,42.82,7.22,7.62,5.37,15.18,10.81,21.04,18.21.75.94,1.35,1.99,2.07,2.94.49.7,1.42.93,1.84,1.71-.65,1.3.47,2.06.96,2.97,1.22,2.26,2.78,4.37,2.99,7.06-2.78,2.03-5.58,3.58-8.93,1.01-1.1-.84-2.54-1.05-3.93-1.19-1.02-.27-1.69-1.08-2.51-1.64-2.56-1.74-5.3-2.32-8.36-1.51-3.02.8-4.67,2.77-5.23,5.72-.44,2.32,1.01,4.93,3.44,6.39.85.51,1.91.71,2.53,1.59-.9,3.6,1.19,5.19,4.14,6.22.41.15.79.46.71,1.03-1.4,1.38-3.13,1.01-4.69.64-2.02-.48-3.8-.22-5.59.71-4.11,2.14-8.59,2.22-12.95,1.57-3.45-.51-6.68-2.07-8.1-5.79.12-.87.65-1.52,1.2-2.14,1.81-2.04,2.55-4.49,2.63-7.14.08-2.68.17-5.36-.12-8.03-.2-1.85-1.04-2.78-3.04-2.76-6.36.06-12.73.05-19.09,0-1.84-.01-2.58.74-2.82,2.56-.45,3.51-.6,6.98-.11,10.49.35,2.5,2.12,4.26,3.16,6.4.25,1.98-1.12,3.03-2.45,3.98-4.09,2.9-8.7,3.07-13.41,2.22-2.91-.52-5.52-1.89-8.1-3.28-.21-.18-.49-.44-.39-.67.87-2.1.56-4.28.47-6.45.36-.68,1.03-1.02,1.63-1.44,2.9-2.02,3.94-4.43,3.14-7.24-.82-2.88-3.29-4.74-6.56-4.97-2.37-.17-4.54.42-6.55,1.66-.78.48-1.44,1.14-2.36,1.38-1.96,0-3.47.85-4.78,2.31-2.42,2.71-3.15,2.76-6.31.76-.93-.59-1.91-1.09-2.85-1.66-1.12-.68-1.82-1.55-1.13-2.94Z"/>
        <path class="cls-5" d="M145.16,67.84c2.69,9.94,1.72,19.55-2.61,28.84-1.07,2.29-2.89,4.04-4.79,5.68-.89.77-1.6,1.45-.46,2.68.81.87.65,2.03.25,3.15-1.39,3.89-4.17,6.54-8.06,7.25-4.07.74-7.75,2.28-11.47,3.86-18.91,8.02-38.11,8.41-57.54,2.14-2.01-.65-3.94-1.58-5.82-2.54-2.97-1.5-5.9-2.84-9.35-3.05-4.19-.26-7.43-2.62-9.91-5.92-1.24-1.65-2.32-3.5-.54-5.49.66-.74.28-1.12-.28-1.54-6.9-5.07-8.12-12.73-8.89-20.39-.53-5.3-.61-10.71,1.44-15.84,1.54,2.03,3.91,2.89,5.89,4.29,1.97,1.38,4.33,2.48,4.6,5.35-.51,2.44-2.35,4.37-2.51,6.98-.43,7,3.61,13.29,10.43,15.94,1.54.6,3.13,1.09,4.75,1.47,7.68,2.07,15.5,3.05,23.43,3.67,5.53.43,11.03.42,16.55.44,11.22.03,22.19-1.72,32.99-4.7,4.74-1.31,8.86-3.5,11.59-7.88,2.26-3.63,3.54-7.29,1.79-11.49-.24-1.29-.81-2.5-.99-3.81-.23-1.82.57-3.13,2.01-4.17,2.43-1.75,4.95-3.35,7.52-4.88Z"/>
        <path class="cls-44" d="M129.96,34.65c-1.69-.69-3.37-1.42-5.07-2.07-.64-.25-1.02-.63-1.36-1.24-4.53-8.17-13.1-12.28-22.66-10.97-1.67.23-3.41,1-5.03-.21-.34-1.49.95-2.04,1.7-2.88.55-.62,1.3-1.03,1.94-1.56.98-.83,2.15-1.58,1.65-3.19,7.12-2.56,14.34-4.77,21.81-6.1,3.63-.65,7.09-.32,10.59.88,8.1,2.77,15.74,6.3,22.17,12.11,3.05,2.43,5.39,5.62,8.45,8.04.82.78,1.97,1.3,2.07,2.65-.33,1.12-.1,2.02.7,2.96,1.59,1.87,2.74,4.02,3.25,6.46-1.65,1.64-3.03,3.6-5.34,4.46-1.39.16-2.61-.11-3.44-1.37-.5-1.93-.57-3.95-2.21-5.53-2.94-2.83-6.13-3.2-9.44-.8-.59.43-1.1,1-1.82,1.24-1.3.06-2.17-.53-2.63-1.74-.07-.36-.08-.73-.01-1.1.68-3.7.22-5.25-1.84-6.23-2.37-1.13-5.01-.42-7.09,1.91-.77.89-.31,3.56-2.86,1.94-.47-.3-.81.55-1.14.95-.61.76-1.1,1.73-2.36,1.38Z"/>
        <path class="cls-34" d="M5.59,37.87c.45-2.21,1.61-4.07,3.12-5.63.97-1,1.43-2.02,1.3-3.36,2.82-3.27,5.75-6.45,8.9-9.41,7.82-6.8,16.92-11.07,26.83-13.81,3.27-.9,6.64-1.12,9.87-.53,8.25,1.51,16.47,3.27,23.95,7.37.86.93.41,2.11.62,3.17-.44,1.95-1.54,3.44-3.19,4.53-5.29-.85-10.55-1.2-15.64,1.05-4.71,2.08-9.01,4.63-11.09,9.71-.42,1.03-1.08,1.62-2.18,1.86-1.79.39-3.55.88-5.33,1.32q-3.01.18-3.92-3.56c-2.74-3.41-5.83-3.53-8.68-.32-.42.48-.78,1.01-1.37,1.32-2.1.62-4.24,1.1-6.44.83-1.85-.23-2.97.5-3.51,2.24-.46.82-1.15,1.26-2.09,1.29-2.66-1.1-4.17.11-5.51,2.39-1.63,2.77-4.04,3-5.63.8-.28-.39-.36-.83-.01-1.25Z"/>
        <path class="cls-32" d="M165.04,43.42c1.96-.96,2.73-3.5,5.12-3.9,3.48,9.82,2.71,19-4.13,27.26-.51.62-1.41,1.15-.91,2.11,1.15,2.2-.28,3.49-1.63,4.76-3.2,3.02-7.3,4.19-11.36,5.45-1.67.52-1.32-.66-1.33-1.51-.04-3.79-.1-7.58-1.02-11.29,2.02-1.56,4.6-1.66,6.87-2.61,5.51-2.3,8.9-7.64,8.15-13.03-.25-1.75-1.3-3.25-1.46-5.02-.13-1.28.67-1.85,1.71-2.22Z"/>
        <path class="cls-7" d="M22.17,66.13c-.5,3.47-1.06,6.94-.98,10.46.04,1.63-.52,1.88-1.95,1.29-2.67-1.1-5.17-2.45-7.24-4.5-1.37-1.36-2.59-2.74-1.04-4.78.55-.73.19-1.4-.45-1.93-5.98-4.92-6.79-11.8-6.91-18.84-.05-2.83.2-5.72,1.4-8.39,1.64,1.9,3.56,3.43,5.79,4.58,1.11.57,1.97,1.38,1.91,2.78-.27,1.64-1.29,3.02-1.42,4.75-.44,5.56,2.11,9.32,6.74,12.02,1.4.81,3.24.93,4.14,2.56Z"/>
        <path class="cls-18" d="M163.87,45.73c2.71,7.4,1.77,12.74-3.16,16.41-3.21,2.4-6.92,3.77-10.94,4.16-.48-1.39-.85-2.83-1.47-4.15-.9-1.91-1.67-3.54-.63-5.88.95-2.16-.95-4.36-1.46-6.57.73-1.14,1.99-1.05,3.07-1.37,2.47-.61,4.8-.68,7.07.9,1.8,1.26,3.41.48,4.86-1.01.84-.86,1.05-2.44,2.65-2.49Z"/>
        <path class="cls-6" d="M116.3,35.17c-4.13-2.21-8.39-4.1-12.7-5.95-12.14-5.22-24-4-35.81.93-3.03,1.27-6.01,2.65-9.01,3.98.4-2.3-1.63-2.9-2.83-4.08,2.57-3.26,5.84-5.25,10.04-5.55.51-.04.99-.36,1.49-.55,1.84-.35,3.68-.42,5.51.04,3.45,1.36,6.92,2.3,10.52.5,3.44-.49,6.89-.71,10.33-.04,1.79,1.18,3.71.52,5.56.3,3.77-.45,7.51-.89,11.19.57,4.44,1.76,8.03,4.4,9.64,9.15.14.98-.55.74-.99.59-1.01-.33-1.97-.2-2.95.09Z"/>
        <path class="cls-15" d="M12.3,46.83c-.19-1.37-1.26-1.76-2.28-2.45-1.94-1.3-4.73-1.9-5.02-4.93.04-.59.08-1.17.59-1.58,2.14,3.12,3.46,2.98,5.56-.6,1.8-3.06,2.92-3.38,5.53-1.56.24,1.36-.9,2.14-1.38,3.19-1.07,2.39-.42,4.52,1.96,5.44,2.38.92,4.87,1.01,7.22-.13,1.7-.82,3.21-1.97,3.03-4.17-.18-2.3-1.37-3.83-3.53-4.83-1.87-.87-3.83.3-5.63-.58.15-2.3,1.02-3.57,3.65-2.93,2.27.56,4.5-.6,6.79-.49.82.62.71,1.65,1.09,2.47.92,1.98,2.52,2.88,4.64,2.76,2.13-.13,3.7-1.64,4.09-3.8.16-.88-.04-1.87.8-2.54.06.07.18.13.18.2-.04,2.18.82,3.62,3.15,3.84-6.96,2.91-11.75,8.31-16.11,14.18-1.47.73-3.09,1.06-4.58,1.76-4.22,2.01-7.44.91-9.76-3.26Z"/>
        <path class="cls-22" d="M12.3,46.83c.69.59,1.39,1.17,2.06,1.78,2.16,1.95,4.39,2.77,7.14,1,1.5-.97,3.22-1.69,5.13-1.28-.92,2.38-3.04,4.86-2.14,7.23,1.64,4.31-1.21,7.16-2.34,10.58-2.82-.94-5.49-2.18-7.68-4.25-4.5-4.25-5.25-9.56-2.18-15.06Z"/>
        <path class="cls-45" d="M79.76,13.1c-5.53-2.5-11.38-4.01-17.15-5.83-9.3-2.93-17.88-1.26-26.5,2.45-6.23,2.68-11.81,6.32-17.1,10.47-.84.3-1.62.81-2.51.86-.87.05-2.07.51-2.15-1.1,3.71-3.66,8.27-6.09,12.74-8.62,1.22-.69,2.44-1.27,3.11-2.61.59-1.18,1.77-1.55,2.91-1.94,15.71-5.29,30.84-3.72,45.45,3.93.82.43,1.56.98,2.05,1.8-.15.39-.42.6-.85.57Z"/>
        <path class="cls-12" d="M37.16,76.16c-1.5-3.75-5.2-4.87-8.19-6.79-1.08-.7-1.94-1.31-1.86-2.7.06-.59.11-1.18.63-1.59-.09,1.14.31,1.96,1.43,2.38.34.13.7.27.98.49,3.1,2.53,5.95,3.63,8.62-.72.71-1.15,2.39-1.64,3.96-1.03.28.92-.35,1.58-.69,2.31-1.72,3.75-.49,6.71,3.42,8.12,1.84.67,3.72.98,5.69.53.85-.19,1.8-.61,2.61.2,1.03,2.3,1.01,4.51-.56,6.6-1.69,2.64-4.28,1.79-6.63,1.65-1.37-.08-2.59-.78-3.72-1.57-2.61-2.1-4.63-4.64-5.7-7.87Z"/>
        <path class="cls-14" d="M155.57,20.15c-6.93-6.07-15.07-9.85-23.75-12.64-4.74-1.52-9.29-.17-13.9.7-5.82,1.1-11.24,3.54-16.99,4.88-.66.33-1.19.13-1.64-.39,5.49-4.3,12.07-5.82,18.69-6.95,8.82-1.51,17.82-.96,25.67,3.08,4.94,2.54,10.01,5.67,14.16,9.74-.11,1.45-.97,1.81-2.25,1.58Z"/>
        <path class="cls-11" d="M149.56,48.91c-1.12.26-2.23.52-3.35.79-4.61-5.9-10.34-10.57-16.26-15.05.97-.41,1.53-1.19,2.04-2.09,1.23-2.16,1.26-2.14,2.96-.18.4-.71-.12-1.69.65-2.28.72.46.67,1.24.8,1.94.69,3.55,3.09,5.01,6.58,4.02.86-.25,1.66-.8,2.62-.5.36,1.04,1.39,1.26,2.18,1.76.42.33.46.78.39,1.25-.52,3.45,1.76,5.2,4.14,6.9.23,2.08-1.63,2.47-2.78,3.44Z"/>
        <path class="cls-43" d="M55.95,30.06c.28.44.65.37,1.13.37,2.2-.01,2.67.78,1.75,2.65-.14.29-.04.7-.05,1.06-8.05,4.4-14.89,10.42-21.69,16.48-3.31,1.44-4.76.67-4.45-2.37,3.1-4.99,7.66-8.13,12.98-10.31,1.62-.66,3.25-1.31,4.92-1.83,1.99-.62,3.45-1.61,3.86-3.84.16-.9.74-1.68,1.55-2.21Z"/>
        <path class="cls-23" d="M145.16,67.84c-1.58,2.81-4.8,3.47-7.09,5.38-1.28,1.07-1.93,2.1-1.92,3.66-1.02,1.66-2.41,3.04-3.51,4.65-1.63,1.51-3.01,3.5-5.69,3.03-1.81-.09-3.22-1.24-4.8-1.92-1.17-.5-1.61-1.47-.8-2.7.42-.64.56-1.36.5-2.12.89-.89,2.05-.68,3.13-.7,1.49-.03,2.92-.26,4.3-.83,3.8-1.58,4.68-3.49,3.36-7.39-.23-.69-.62-1.35-.35-2.12,2.11-.7,3.71.62,5.29,1.55,1.49.87,2.61,1.2,4.14.03.87-.66,2.21-.72,3.33-1.05.04.18.07.36.11.55Z"/>
        <path class="cls-46" d="M116.3,35.17c.97-2.21,2.62-.47,3.93-.68,6.91,3.11,12.92,7.51,18.14,12.99.94.99,1.73,2.11,2.59,3.18-.13,1.19.07,2.4-.15,3.59-.2,1.03-.42,2.04-1.79,2.03-5.89-8.86-14.43-14.84-22.72-21.1Z"/>
        <path class="cls-25" d="M99.31,12.7c.54.13,1.09.26,1.64.39.69.4,1.76.49.54,1.71-1.84,1.84-4.33,2.99-5.66,5.36-1.37-.46-3.56-.51-3.79-1.75-.29-1.54,1.83-2.26,3.03-3.17,1.31-.99,2.82-1.71,4.24-2.55Z"/>
        <path class="cls-19" d="M155.57,20.15c.79-.47,1.77-.67,2.25-1.58,3.48,1.88,6.35,4.36,7.9,8.12.02,1.31-.82,1.36-1.78,1.22-3.3-2.03-5.39-5.38-8.37-7.76Z"/>
        <path class="cls-48" d="M14.36,19.96c1.48,1.52,3.14-.58,4.66.23-3.16,2.72-5.36,6.45-9,8.69-.63-3.99,1.34-6.71,4.34-8.92Z"/>
        <path class="cls-10" d="M79.76,13.1c.28-.19.57-.38.85-.57,2.08,1.18,4.06,2.48,5.74,4.22,1.29,1.34,1.39,2.34-.66,2.87-1.41.36-2.83.73-4.24,1.09.22-1.93-.19-3.65-1.64-5.03-.56-.85-.78-1.7-.04-2.56Z"/>
        <path class="cls-29" d="M32.64,48.24c.09,3.42,2.66,2.16,4.45,2.37-1.27,1.5-2.53,3-3.8,4.5-2.69.29-2.62-1.71-2.85-3.46.44-1.32,1.16-2.47,2.2-3.41Z"/>
        <path class="cls-41" d="M79.8,15.66c2.53,1.03,3.25,2.65,1.64,5.03-1.62,1.05-3.04.3-4.46-.5.94-1.51,1.87-3.02,2.81-4.53Z"/>
        <path class="cls-30" d="M139.02,56.27c1.26-.67,1.1-1.88,1.19-3.03.07-.9-.47-2.02.75-2.59,2.21,3.21,2.23,4.44.13,6.62-.8-.1-1.53-.36-2.08-1Z"/>
        <path class="cls-17" d="M30.44,51.65c1.18.97.77,3.24,2.85,3.46-.68.73-1.36,1.46-2.03,2.19-2.21-1.6-2.32-3.51-.82-5.65Z"/>
        <path class="cls-37" d="M93.85,24.46c-3.44.01-6.89.02-10.33.04,3.44-.94,6.88-1.58,10.33-.04Z"/>
        <path class="cls-33" d="M163.95,27.92c.59-.41,1.19-.82,1.78-1.22.64,1.07,1.36,2.13.48,3.42-.75-.73-1.51-1.46-2.26-2.2Z"/>
        <path class="cls-43" d="M73,24c-1.84-.01-3.67-.03-5.51-.04,1.84-.57,3.68-.77,5.51.04Z"/>
        <path class="cls-1" d="M126.96,84.56c2.27-.37,3.65-2.13,5.31-3.45,1.6-.67,3.07-2.03,5.01-1.04,2.13,9.48-2.05,16.88-11.55,20.06-8.96,3-18.24,4.58-27.65,5.16-15.8.97-31.51.34-46.95-3.58-.44-.11-.84-.34-1.27-.51-2.67-1.4-5.57-2.21-7.97-4.29-3.35-2.9-5.23-6.36-5.76-10.68-.19-1.53-.21-3.09,1.09-4.08,1.36-1.04,2.81-.39,4.14.35.48.27.91.63,1.44.82,3.36,1.92,6.79,2.81,10.4.62,1.54,0,2.76.9,4.1,1.47,5.68,2.42,11.35,2.94,16.89-.33,1.29-.76,2.77-1.57,2.82-3.44.6-.44,1.25-.32,1.84-.05,5.05,2.25,10.17,2.11,15.34.46.54-.17,1.08-.23,1.59.1,4.68,6.1,12.82,6.56,19.9,3.72,2.43-.98,4.58-2.06,7.31-.85,1.15.51,2.73.45,3.96-.47Z"/>
        <path class="cls-40" d="M95.79,82.17c-6.34,2.95-12.6,2.81-18.77-.51-4.2-3.92-4.03-9.01-3.75-14.12q.35-6.22,6.46-6.26c5.98-.03,11.96.03,17.93-.07,1.5-.02,2.05.38,2.25,1.91.48,3.68.48,7.36.24,11.04-.21,3.29-1.91,5.89-4.36,8.02Z"/>
        <path class="cls-13" d="M53.77,77.36c-2.14.23-4.15,1.12-6.44.58-7.09-1.67-8.78-5.84-4.6-11.74,3.41-3.05,7.26-4.25,11.7-2.73,3.15,1.08,4.74,3.45,4.83,6.7.09,3.1-1.6,5.17-4.31,6.5-.41.2-.8.46-1.19.69Z"/>
        <path class="cls-35" d="M132.29,66.77c3.54,6.15,1.21,10.49-6.01,11.1-1.46.12-2.95-.02-4.42-.04-.85-.34-1.72-.63-2.54-1.03-2.51-1.23-4.29-4.18-4.09-6.67.25-3.09,2.47-5.82,5.33-6.7,4.64-1.42,8.43.07,11.73,3.35Z"/>
        <path class="cls-3" d="M107.45,50.53c4.21-.04,7.13,2.67,7.22,6.7.09,4.05-3.19,7.31-7.35,7.31-3.99,0-7.88-3.08-7.9-6.26-.04-4.33,3.46-7.7,8.03-7.75Z"/>
        <path class="cls-39" d="M65.05,50.56c4.46-.01,7.78,3.24,7.74,7.58-.03,3.94-2.93,6.44-7.41,6.4-4.17-.04-7.65-3.35-7.58-7.22.07-3.92,3.11-6.74,7.25-6.75Z"/>
        <path class="cls-8" d="M75.91,47.56c-.41,1.46-1.33,2.26-2.81,1.49-1.95-1.02-3.78-2.27-5.66-3.43-.77-.47-1.3-1.11-.89-2.05.45-1.01,1.4-1.83,2.38-1.5,2.63.89,4.95,2.38,6.67,4.64.16.21.19.51.3.85Z"/>
        <path class="cls-9" d="M99.19,49.22c-1.78-.33-2.43-1.13-1.91-2.59.53-1.49,5.57-4.56,7.05-4.32.94.15,1.77.59,2.04,1.6.27,1.01-.44,1.48-1.19,1.9-2.07,1.16-4.12,2.34-5.99,3.4Z"/>
        <path class="cls-28" d="M42.82,83.33c-.79-.2-1.6-.36-2.38-.59-3.12-.94-4.05.11-3.6,3.42.97,7.15,5.36,11.28,11.65,13.85.63.26,1.15.53,1.39,1.19-9.53-1.66-15.8-8.61-15.64-17.12.06-3.05,1.75-5.36,2.93-7.92,2.02,2.28,3.21,5.22,5.65,7.17Z"/>
        <path class="cls-24" d="M54.97,113.48c-1.53.1-2.56-.76-2.58-2.37-.03-1.82,1.31-2.59,2.93-2.56,1.67.03,2.39,1.16,2.36,2.77-.03,1.68-1.08,2.18-2.71,2.16Z"/>
        <path class="cls-16" d="M137.28,80.08c-1.68.29-3.26,1.09-5.01,1.04,1.26-1.45,1.91-3.45,3.89-4.23.37,1.06.75,2.13,1.12,3.19Z"/>
        <path class="cls-21" d="M152.29,45.71c-4.01-1.47-5.4-4.07-4.48-8.39,2.95-3.36,5.51-4.16,8.99-2.83,3.1,1.19,4.91,4.06,4.93,7.83-1.99,3.73-5.5,4.98-9.44,3.39Z"/>
        <path class="cls-27" d="M145.62,35.56c-2.35,1.83-4.87,2.06-7.5.72-2.58-1.32-2.83-3.64-2.51-6.18,1.42-3.27,6.07-3.55,8.38-2.24,2.59,1.46,3.16,4,1.63,7.7Z"/>
        <path class="cls-42" d="M152.29,45.71c3.67.33,6.96-.38,9.44-3.39.87,1.08,2.07,1.15,3.31,1.1-.65.64-1.26,1.29-1.17,2.3-.65.98-1.22,2.03-1.96,2.93-2.05,2.48-4.15,2.87-6.63.83-1.93-1.59-3.8-.67-5.72-.57.4-1.51,2.12-1.88,2.73-3.2Z"/>
        <path class="cls-47" d="M141.79,21.76c-.14.26-.22.71-.48.86-2.15,1.24-4.32,2.43-6.51,3.59-.45.24-.93-.03-1.17-.46-.37-.69-.49-1.54.1-2.07,1.72-1.55,3.59-2.93,5.83-3.59,1.16-.34,1.87.44,2.23,1.67Z"/>
        <path class="cls-49" d="M117.96,18.67c-.39,1.36-1.17,1.92-2.44,1.18-1.49-.87-2.93-1.84-4.39-2.77-.62-.39-.88-.88-.48-1.6.38-.69.96-1.33,1.7-1.1,2.12.66,3.89,1.95,5.43,3.55.16.17.13.51.18.75Z"/>
        <path class="cls-20" d="M18.37,34.64c3.15-.83,6.27-1.09,8.56,1.78,3.03,3.79,1.01,8.34-3.95,9.17-.45.08-.91.07-1.37.07-2.76-.01-5.68.22-7.16-2.85-1.45-3,.62-5.01,2.24-7.1.56-.36,1.12-.71,1.68-1.07Z"/>
        <path class="cls-50" d="M39.42,30.1c.17,2.21.54,4.48-1.73,5.96-1.88,1.22-3.89,1.69-5.98.63-2.22-1.12-3.02-3.08-2.9-5.48,2.6-5.02,6.91-5.47,10.62-1.11Z"/>
        <path class="cls-2" d="M41.68,24.98c-.19,1.18-.92,1.78-2.11,1.14-1.78-.96-3.57-1.97-5.16-3.21-1.43-1.11-.19-2.01.72-2.53,1.29-.75,6.6,2.98,6.55,4.61Z"/>
        <path class="cls-38" d="M63.54,19.64c-.49.05-.92-.1-1.2-.5-.35-.53-.23-1.06.16-1.5,1.41-1.59,3.17-2.73,4.99-3.76.81-.46,1.38.05,1.88.63.39.45.51.93.18,1.49-.4.69-5.24,3.65-6.02,3.64Z"/>
        <path class="cls-36" d="M95.34,75.66c-.22,1.52-1.16,2.54-2.47,3.12-4.1,1.81-8.26,1.86-12.26-.22-2.71-1.41-3.4-4.36-2.49-8.61.62-2.92,2.68-3.82,5.28-3.88,2.3-.05,4.6.11,6.9.19,2.12-.1,3.01,1.13,3.61,3.01.67,2.1,1.71,4.09,1.43,6.4Z"/>
        <path class="cls-31" d="M95.34,75.66c-.76-2.16-1.66-4.29-2.23-6.5-.42-1.62-1.31-2.49-2.81-2.91,5.77-.02,7.76,3.68,5.04,9.41Z"/>
      </g>
      <text class="cls-51" transform="translate(202.43 92.71)"><tspan x="0" y="0">까도 내가 까</tspan></text>
    </g>
  </g>
</svg>